HIERARCHY
ROOT Junyuan_V1:Solving:Hips
{
	OFFSET 0.000000 0.000000 0.000000
	CHANNELS 6 Xposition Yposition Zposition Xrotation Yrotation Zrotation
	JOINT Junyuan_V1:Solving:Spine
	{
		OFFSET 0.000000 -11.587388 2.561626
		CHANNELS 6 Xposition Yposition Zposition Xrotation Yrotation Zrotation
		JOINT Junyuan_V1:Solving:Spine1
		{
			OFFSET 0.000000 -9.293384 1.638677
			CHANNELS 6 Xposition Yposition Zposition Xrotation Yrotation Zrotation
			JOINT Junyuan_V1:Solving:Spine2
			{
				OFFSET 0.000000 -9.400841 0.822469
				CHANNELS 6 Xposition Yposition Zposition Xrotation Yrotation Zrotation
				JOINT Junyuan_V1:Solving:Spine3
				{
					OFFSET 0.000000 -9.436749 0.000000
					CHANNELS 6 Xposition Yposition Zposition Xrotation Yrotation Zrotation
					JOINT Junyuan_V1:Solving:Neck
					{
						OFFSET 0.000000 -12.132965 -1.213294
						CHANNELS 6 Xposition Yposition Zposition Xrotation Yrotation Zrotation
						JOINT Junyuan_V1:Solving:Neck1
						{
							OFFSET 0.000000 -6.347839 -0.555364
							CHANNELS 6 Xposition Yposition Zposition Xrotation Yrotation Zrotation
							JOINT Junyuan_V1:Solving:Head
							{
								OFFSET 0.000000 -6.275284 -1.106502
								CHANNELS 6 Xposition Yposition Zposition Xrotation Yrotation Zrotation
								JOINT Junyuan_V1:Solving:HeadEnd
								{
									OFFSET 0.000000 -9.728081 0.000002
									CHANNELS 6 Xposition Yposition Zposition Xrotation Yrotation Zrotation
									End Site
									{
										OFFSET 0.000000 -9.728081 0.000002
									}
								}
							}
						}
					}
					JOINT Junyuan_V1:Solving:RightShoulder
					{
						OFFSET 0.000000 -8.666405 -5.270916
						CHANNELS 6 Xposition Yposition Zposition Xrotation Yrotation Zrotation
						JOINT Junyuan_V1:Solving:RightArm
						{
							OFFSET -19.077805 -0.000008 0.000000
							CHANNELS 6 Xposition Yposition Zposition Xrotation Yrotation Zrotation
							JOINT Junyuan_V1:Solving:RightForeArm
							{
								OFFSET -27.209019 -0.000008 0.000000
								CHANNELS 6 Xposition Yposition Zposition Xrotation Yrotation Zrotation
								JOINT Junyuan_V1:Solving:RightHand
								{
									OFFSET -21.734264 -0.000008 0.000000
									CHANNELS 6 Xposition Yposition Zposition Xrotation Yrotation Zrotation
									JOINT Junyuan_V1:Solving:RightHandThumb1
									{
										OFFSET -3.883522 2.884647 -2.887744
										CHANNELS 6 Xposition Yposition Zposition Xrotation Yrotation Zrotation
										End Site
										{
											OFFSET -5.627335 0.000000 -5.679366
										}
									}
									JOINT Junyuan_V1:Solving:RightHandMiddle1
									{
										OFFSET -10.356049 -0.000004 0.066385
										CHANNELS 6 Xposition Yposition Zposition Xrotation Yrotation Zrotation
										End Site
										{
											OFFSET -7.995132 -0.000004 0.000000
										}
									}
								}
							}
						}
					}
					JOINT Junyuan_V1:Solving:LeftShoulder
					{
						OFFSET 0.000000 -8.666405 -5.270916
						CHANNELS 6 Xposition Yposition Zposition Xrotation Yrotation Zrotation
						JOINT Junyuan_V1:Solving:LeftArm
						{
							OFFSET 19.077805 -0.000008 0.000000
							CHANNELS 6 Xposition Yposition Zposition Xrotation Yrotation Zrotation
							JOINT Junyuan_V1:Solving:LeftForeArm
							{
								OFFSET 27.209019 -0.000008 0.000000
								CHANNELS 6 Xposition Yposition Zposition Xrotation Yrotation Zrotation
								JOINT Junyuan_V1:Solving:LeftHand
								{
									OFFSET 21.734264 -0.000008 0.000000
									CHANNELS 6 Xposition Yposition Zposition Xrotation Yrotation Zrotation
									JOINT Junyuan_V1:Solving:LeftHandThumb1
									{
										OFFSET 3.883522 2.884647 -2.887744
										CHANNELS 6 Xposition Yposition Zposition Xrotation Yrotation Zrotation
										End Site
										{
											OFFSET 5.627335 0.000000 -5.679366
										}
									}
									JOINT Junyuan_V1:Solving:LeftHandMiddle1
									{
										OFFSET 10.356049 -0.000004 0.066385
										CHANNELS 6 Xposition Yposition Zposition Xrotation Yrotation Zrotation
										End Site
										{
											OFFSET 7.995132 -0.000004 0.000000
										}
									}
								}
							}
						}
					}
				}
			}
		}
	}
	JOINT Junyuan_V1:Solving:RightUpLeg
	{
		OFFSET -10.145194 0.000000 0.000000
		CHANNELS 6 Xposition Yposition Zposition Xrotation Yrotation Zrotation
		JOINT Junyuan_V1:Solving:RightLeg
		{
			OFFSET 0.000000 45.059078 -0.000006
			CHANNELS 6 Xposition Yposition Zposition Xrotation Yrotation Zrotation
			JOINT Junyuan_V1:Solving:RightFoot
			{
				OFFSET 0.000000 37.058613 -0.000006
				CHANNELS 6 Xposition Yposition Zposition Xrotation Yrotation Zrotation
				JOINT Junyuan_V1:Solving:RightForeFoot
				{
					OFFSET 0.000000 3.397476 -0.000000
					CHANNELS 6 Xposition Yposition Zposition Xrotation Yrotation Zrotation
					JOINT Junyuan_V1:Solving:RightToeBase
					{
						OFFSET 0.000000 0.000000 -13.305598
						CHANNELS 6 Xposition Yposition Zposition Xrotation Yrotation Zrotation
						JOINT Junyuan_V1:Solving:RightToeBaseEnd
						{
							OFFSET 0.000000 0.000000 -4.190945
							CHANNELS 6 Xposition Yposition Zposition Xrotation Yrotation Zrotation
							End Site
							{
								OFFSET 0.000000 -4.190948 0.000000
							}
						}
					}
				}
			}
		}
	}
	JOINT Junyuan_V1:Solving:LeftUpLeg
	{
		OFFSET 10.145194 0.000000 0.000000
		CHANNELS 6 Xposition Yposition Zposition Xrotation Yrotation Zrotation
		JOINT Junyuan_V1:Solving:LeftLeg
		{
			OFFSET 0.000000 45.059078 -0.000006
			CHANNELS 6 Xposition Yposition Zposition Xrotation Yrotation Zrotation
			JOINT Junyuan_V1:Solving:LeftFoot
			{
				OFFSET 0.000000 37.058613 -0.000006
				CHANNELS 6 Xposition Yposition Zposition Xrotation Yrotation Zrotation
				JOINT Junyuan_V1:Solving:LeftForeFoot
				{
					OFFSET 0.000000 3.397476 -0.000000
					CHANNELS 6 Xposition Yposition Zposition Xrotation Yrotation Zrotation
					JOINT Junyuan_V1:Solving:LeftToeBase
					{
						OFFSET 0.000000 0.000000 -13.305598
						CHANNELS 6 Xposition Yposition Zposition Xrotation Yrotation Zrotation
						JOINT Junyuan_V1:Solving:LeftToeBaseEnd
						{
							OFFSET 0.000000 0.000000 -4.652039
							CHANNELS 6 Xposition Yposition Zposition Xrotation Yrotation Zrotation
							End Site
							{
								OFFSET 0.000000 -4.652039 0.000000
							}
						}
					}
				}
			}
		}
	}
}
MOTION
Frames: 5
Frame Time: 0.041667
-34.214611 71.406654 -88.343933 -89.152376 -1.563454 -178.590104 -0.000002 -11.587396 2.561607 18.851256 -0.181530 -2.095389 0.000008 -9.293381 1.638670 2.544913 0.058161 -0.261011 -0.000006 -9.400837 0.822463 0.058048 0.242025 0.478663 -0.000003 -9.436748 -0.000003 2.453175 -1.293477 1.177643 -0.000001 -12.132953 -1.213310 -1.548960 1.845261 0.175278 -0.000004 -6.347810 -0.555348 -0.637559 -8.212103 5.198389 -0.000003 -6.275289 -1.106508 1.411859 -1.715110 5.226453 -0.000008 -9.728088 0.000002 0.000003 -0.000000 -0.000001 -0.000008 -8.666393 -5.270938 -0.000002 15.854643 6.907613 -19.077805 -0.000024 -0.000007 -11.353474 -44.769148 -84.059357 -27.209019 -0.000019 -0.000005 27.412589 -29.106004 14.158919 -21.734266 0.000005 -0.000003 0.124120 -3.593554 1.979489 -3.883526 2.884629 -2.887749 0.000005 -0.000000 0.000004 -10.356063 -0.000019 0.066389 0.000001 0.000003 0.000001 -0.000010 -8.666393 -5.270935 -0.000006 -17.241511 -10.155212 19.077797 -0.000006 -0.000003 -22.616425 50.841305 92.693809 27.209019 -0.000012 -0.000003 32.276739 33.862193 -19.388505 21.734259 -0.000002 -0.000008 -0.361794 -3.541214 -5.837303 3.883510 2.884643 -2.887746 0.000004 -0.000005 -0.000006 10.356016 -0.000019 0.066388 -0.000001 0.000001 -0.000003 -10.145200 -0.000001 -0.000013 0.481878 15.205657 -2.558054 -0.000005 45.059055 -0.000010 -0.050102 0.000001 0.000000 -0.000007 37.058586 0.000014 3.794970 -7.344925 8.066813 0.000000 3.397476 -0.000001 -0.000001 -0.000001 -0.000000 0.000005 0.000000 -13.305604 6.393157 0.000001 -0.000000 -0.000007 0.000000 -4.190947 0.000001 -0.000000 0.000001 10.145188 -0.000007 -0.000015 -4.299055 -15.334722 -3.966841 0.000004 45.059090 -0.000009 10.469349 -0.000001 -0.000000 0.000005 37.058601 0.000005 -6.120995 -3.590619 11.870707 0.000007 3.397476 0.000006 0.000000 0.000002 -0.000002 0.000004 -0.000002 -13.305609 13.152002 0.000004 0.000001 -0.000005 -0.000000 -4.652056 -0.000001 0.000004 -0.000002 
-34.219364 71.543839 -88.314804 -89.351244 -0.870107 -178.561854 0.000001 -11.587378 2.561619 18.933600 -0.241765 -2.260157 0.000002 -9.293364 1.638680 2.614061 0.073304 -0.298863 -0.000010 -9.400834 0.822457 0.150793 0.384392 0.444620 -0.000003 -9.436754 0.000009 2.500396 -1.254640 1.178209 0.000000 -12.132936 -1.213294 -1.502913 1.833418 0.205616 -0.000003 -6.347860 -0.555368 -0.536780 -8.325292 5.295799 0.000004 -6.275285 -1.106504 1.425228 -1.726519 5.254600 -0.000001 -9.728073 -0.000009 0.000002 -0.000002 0.000000 0.000001 -8.666416 -5.270908 -0.000007 15.826341 7.102756 -19.077814 -0.000021 0.000008 -11.628411 -45.870546 -84.632949 -27.209028 -0.000008 0.000014 27.610541 -30.779322 14.983900 -21.734236 -0.000005 -0.000001 0.140951 -4.298892 1.879693 -3.883505 2.884648 -2.887743 0.000002 0.000002 0.000002 -10.356054 -0.000009 0.066391 -0.000001 -0.000003 0.000002 -0.000001 -8.666416 -5.270908 -0.000007 -17.106523 -10.306387 19.077801 0.000003 -0.000008 -23.396130 51.336863 93.485796 27.209053 -0.000015 0.000005 33.746575 35.278528 -21.099534 21.734253 0.000005 0.000003 -0.342777 -3.489890 -5.613140 3.883542 2.884665 -2.887754 -0.000005 0.000003 0.000006 10.356068 0.000002 0.066372 0.000001 -0.000003 0.000005 -10.145192 0.000030 -0.000008 0.392826 15.571178 -2.614608 -0.000003 45.059101 -0.000013 -0.269645 -0.000004 -0.000000 0.000002 37.058598 -0.000027 3.836665 -7.020713 7.878493 0.000004 3.397476 -0.000009 0.000000 0.000001 0.000001 0.000000 -0.000001 -13.305623 6.459571 0.000002 0.000000 -0.000003 -0.000000 -4.190946 -0.000001 0.000000 0.000001 10.145187 0.000019 0.000002 -5.114799 -15.273539 -4.141333 0.000008 45.059074 -0.000013 11.369408 0.000002 -0.000001 -0.000002 37.058594 -0.000016 -6.648454 -3.460428 12.478105 -0.000001 3.397476 -0.000016 -0.000000 0.000001 -0.000001 0.000008 -0.000006 -13.305601 13.418423 0.000003 -0.000002 -0.000001 -0.000000 -4.652048 -0.000001 0.000002 -0.000003 
-34.229084 71.653580 -88.286034 -89.508755 -0.240790 -178.560952 -0.000002 -11.587365 2.561626 18.972655 -0.271387 -2.393117 0.000008 -9.293393 1.638683 2.683408 0.083131 -0.316352 0.000005 -9.400827 0.822442 0.291169 0.478487 0.423650 0.000007 -9.436747 -0.000007 2.580283 -1.238016 1.177142 0.000005 -12.132979 -1.213279 -1.394128 1.822869 0.263886 -0.000007 -6.347833 -0.555377 -0.486704 -8.443281 5.358680 -0.000003 -6.275324 -1.106460 1.420374 -1.736164 5.264443 0.000002 -9.728058 -0.000002 -0.000000 -0.000001 0.000000 0.000011 -8.666424 -5.270901 -0.000006 15.724407 7.260448 -19.077793 0.000009 -0.000002 -11.813149 -46.965135 -85.058224 -27.209024 0.000005 0.000014 27.578309 -32.564822 15.702444 -21.734253 -0.000002 -0.000002 0.156613 -4.931395 1.821278 -3.883497 2.884650 -2.887769 0.000000 -0.000005 0.000003 -10.356046 -0.000001 0.066374 -0.000000 0.000003 -0.000006 0.000004 -8.666420 -5.270905 -0.000006 -16.940286 -10.457673 19.077816 0.000002 -0.000009 -24.083230 51.736477 94.173829 27.209042 -0.000012 0.000014 35.395259 36.691325 -23.003679 21.734226 0.000010 0.000001 -0.314167 -3.438143 -5.224190 3.883560 2.884668 -2.887758 0.000002 0.000007 0.000000 10.356087 0.000007 0.066380 0.000002 -0.000001 0.000000 -10.145195 0.000007 0.000008 0.365664 15.729762 -2.635656 0.000005 45.059074 -0.000005 -0.543320 0.000003 0.000000 0.000000 37.058613 0.000002 3.868551 -6.583726 7.677112 -0.000007 3.397484 -0.000021 -0.000000 -0.000001 -0.000001 -0.000002 0.000005 -13.305624 6.538292 0.000000 0.000000 0.000003 0.000008 -4.190947 0.000002 -0.000001 -0.000000 10.145188 0.000033 -0.000015 -5.839333 -15.354501 -4.280577 0.000006 45.059052 -0.000008 12.235420 0.000002 -0.000001 0.000004 37.058609 -0.000005 -7.195302 -3.384225 13.013861 -0.000007 3.397476 0.000005 -0.000001 0.000001 -0.000003 -0.000005 -0.000001 -13.305613 13.492022 0.000003 -0.000001 0.000004 0.000000 -4.652039 0.000002 0.000004 -0.000003 
-34.253281 71.794334 -88.258530 -89.714883 0.402520 -178.564477 0.000001 -11.587404 2.561641 19.039139 -0.309410 -2.517690 -0.000005 -9.293373 1.638669 2.735973 0.094259 -0.347391 -0.000010 -9.400832 0.822473 0.380269 0.583749 0.399126 0.000004 -9.436748 0.000004 2.647630 -1.212520 1.177886 -0.000002 -12.132950 -1.213290 -1.324697 1.817498 0.300917 -0.000001 -6.347832 -0.555361 -0.416689 -8.547806 5.434231 0.000000 -6.275275 -1.106520 1.431882 -1.742987 5.272101 -0.000005 -9.728104 0.000005 0.000000 0.000001 -0.000000 0.000001 -8.666401 -5.270919 -0.000007 15.614548 7.461551 -19.077805 -0.000013 0.000014 -12.222035 -47.770739 -85.622644 -27.209030 0.000002 0.000002 27.666122 -34.114333 16.384849 -21.734261 0.000000 -0.000013 0.138812 -5.678926 1.402492 -3.883521 2.884657 -2.887751 -0.000002 0.000005 0.000001 -10.356071 0.000002 0.066393 -0.000000 -0.000001 -0.000000 -0.000001 -8.666405 -5.270918 -0.000012 -16.825843 -10.591566 19.077820 -0.000004 0.000014 -24.766374 52.173004 94.816911 27.209030 -0.000008 0.000000 36.957454 38.126584 -24.916173 21.734264 -0.000011 -0.000006 -0.291537 -3.378157 -4.935363 3.883545 2.884654 -2.887736 -0.000002 -0.000002 -0.000000 10.356064 -0.000008 0.066394 -0.000005 -0.000003 0.000000 -10.145199 -0.000010 0.000005 0.219900 16.072615 -2.626644 -0.000001 45.059078 -0.000004 -0.701987 -0.000003 0.000000 0.000002 37.058613 -0.000005 3.853332 -6.306948 7.470367 0.000001 3.397484 -0.000009 -0.000000 -0.000001 -0.000000 0.000001 0.000009 -13.305586 6.600680 0.000001 -0.000000 0.000001 0.000000 -4.190940 0.000000 -0.000000 -0.000001 10.145195 -0.000028 0.000010 -6.651026 -15.422680 -4.400189 0.000001 45.059071 0.000004 13.144075 0.000001 -0.000001 -0.000003 37.058620 0.000002 -7.742364 -3.396567 13.412657 0.000005 3.397476 0.000001 -0.000001 0.000000 -0.000000 0.000009 0.000010 -13.305619 13.344338 0.000003 0.000001 -0.000001 0.000000 -4.652041 0.000001 0.000003 -0.000000 
-34.283585 71.921738 -88.232201 -89.905923 1.043457 -178.596483 -0.000002 -11.587355 2.561614 19.071951 -0.344221 -2.604933 0.000007 -9.293388 1.638673 2.785605 0.103499 -0.371007 -0.000001 -9.400828 0.822459 0.484784 0.704676 0.366450 -0.000002 -9.436768 -0.000010 2.729224 -1.188071 1.158334 -0.000003 -12.132934 -1.213287 -1.171069 1.824459 0.324463 0.000005 -6.347832 -0.555380 -0.398468 -8.661710 5.508472 0.000004 -6.275283 -1.106513 1.443936 -1.755491 5.298071 -0.000002 -9.728081 0.000012 -0.000000 0.000001 0.000002 -0.000003 -8.666405 -5.270895 -0.000008 15.457261 7.685678 -19.077806 -0.000010 0.000014 -12.647431 -48.597407 -86.145658 -27.209049 -0.000007 -0.000002 27.600750 -35.710661 16.969945 -21.734261 0.000015 0.000000 0.103674 -6.210284 0.958284 -3.883537 2.884660 -2.887769 0.000004 0.000002 0.000001 -10.356065 -0.000009 0.066379 0.000003 -0.000002 -0.000001 -0.000005 -8.666386 -5.270898 -0.000006 -16.670386 -10.699560 19.077803 0.000002 0.000009 -25.323167 52.544686 95.341381 27.209042 -0.000003 -0.000000 38.352359 39.653630 -26.790363 21.734268 0.000004 0.000003 -0.271398 -3.323445 -4.671151 3.883538 2.884642 -2.887737 -0.000000 -0.000002 0.000000 10.356090 -0.000011 0.066398 -0.000005 -0.000006 0.000003 -10.145200 0.000021 -0.000012 0.136036 16.052241 -2.579432 -0.000004 45.059078 -0.000014 -0.996186 0.000002 0.000000 0.000002 37.058598 -0.000014 3.879628 -5.741795 7.249512 0.000003 3.397476 0.000005 -0.000000 -0.000000 -0.000001 0.000001 -0.000003 -13.305618 6.697507 0.000001 -0.000000 -0.000001 0.000008 -4.190956 0.000000 0.000000 0.000000 10.145183 0.000012 -0.000004 -7.414409 -15.552380 -4.481683 0.000009 45.059078 -0.000005 13.999758 -0.000000 -0.000001 0.000007 37.058601 0.000003 -8.204319 -3.418454 13.707227 0.000007 3.397476 -0.000016 -0.000000 0.000001 -0.000001 -0.000000 0.000009 -13.305607 13.139294 0.000004 -0.000002 -0.000000 -0.000001 -4.652041 -0.000001 0.000001 -0.000006 
